<?xml version="1.0" encoding="UTF-8"?>
<svg id="Layer_2" data-name="Layer 2" xmlns="http://www.w3.org/2000/svg" viewBox="0 0 1104.83 461.18">
  <defs>
    <style>
      .cls-1 {
        fill: #000;
        stroke-width: 0px;
      }
    </style>
  </defs>
  <g id="Layer_1-2" data-name="Layer 1">
    <g>
      <path class="cls-1" d="M24.31,452.74c-10.99-6.39-23.24-17.7-24.25-32.87-1.12-13.98,12.94-29.45,24.14-24.73,5.39,2.31,8.97,9.09,11.84,15.23,3.45,7.63,7.18,15.54,13.47,20.11,15.34,11.52,38.32,6.16,49.48-11.53,11.17-16.1,16.26-41.2,19.88-60.67,2.8-15.78,4.77-28.88,7.55-45.65,6.4-40.59,13.48-80.2,18.1-112.81.9-6.9-.94-16.99-7.88-14.12-3.66,1.63-6.85,5.07-10.05,7.79-7.7,7.41-12.34,6.65-8.71-5.8,2.54-8.01,7.31-15.14,12.33-21.19,11.77-14.36,37.37-32.22,49.51-10.27,2.98,5.61,2.99,15.05,3.34,21.4.35,12.72,6.82,4.96,11.4-.17,13.7-16.21,32.04-33.17,51.99-32.05,18.44,1.81,25.93,21.17,26.53,41.72,1.57,38.17-14.13,75.29-36.78,100.9-13.65,15.06-30.79,27.29-49.11,30.12-7.6,1.02-15.83,1.52-21.07,8.78-6.06,7.81-7.62,21.71-10.25,32.28-9.11,42.88-33.53,83.06-69.22,96.57-19.94,7.63-42.96,7.67-62.1-2.94l-.15-.08ZM210.02,281.23c13.89-15.18,20.44-39.06,22.64-61.42,1.14-11.35,1.41-30.79-7.18-35.86-5.9-3.14-12.81,1.36-17.82,5.73-11.66,10.67-20.18,25.49-27.01,41.09-5.7,14.12-18.27,45.9-6.95,57.57,10.16,9.9,27.39,2.57,36.19-6.98l.12-.13Z"/>
      <path class="cls-1" d="M295.11,306.69c-15.71-19.12-12.9-50.44-4.86-73.6,12.74-36.4,36.35-68.7,66.82-83.54,14.19-6.47,34.2-9.06,44.66,6.58,12.09,21.01-3.23,47.62-16.57,62.44-9.3,10.35-20.27,19.2-31.53,26.29-5.97,3.88-13.13,7.07-18.2,11.38-14.57,12.03-3.11,26.43,11,27.2,10.22.78,20.75-3.91,29.11-11.12,4.77-3.63,15.7-16.37,19.58-11.38.86,1.36.91,3.97.16,7.29-2.29,9.59-8.32,18.02-14.38,24.81-16.48,17.68-38.84,29.26-61.07,26.47-8.97-1.16-18.15-5.07-24.64-12.7l-.11-.13ZM349.66,226.05c9.79-5.99,19.14-17.35,20.58-30.6,1.33-18.3-13.28-21.31-23.86-13.22-9.94,6.36-24.87,31.85-17.83,44.48,5.23,7.25,14.59,3.08,20.95-.56l.17-.1Z"/>
      <path class="cls-1" d="M435.5,314.57c-3.03-7.14-.07-15.65,1.54-23,5.64-23,10.05-49.89,14.16-73.73,1.49-8.98,7.84-41.27-7.71-30.5-4.32,3.08-9.35,8.72-13.6,10.92-5.88,2.99-5.03-4.91-3.6-9.33,2.14-7.14,6.26-13.72,10.6-19.28,11-13.97,32.73-31.61,48.52-21.14,15.92,10.93,3.06,45.44,19.59,32.74,4.14-3.2,8.71-8.06,12.73-12.01,13.35-12.75,22.86-20.53,36.46-24.3,10.24-2.69,21.2,1.75,25.47,14.13,5.42,15.08.04,37.2-3.34,54.84-3.29,16.89-7.54,33.35-9.88,50.32-1.3,10.4.96,22.27,9.61,15.41,3.86-1.8,18.94-25.06,19.75-12.9-1.22,26.96-35.04,59.84-57.36,51.63-16.29-6.41-14.54-31.03-11.77-47.55,2.22-13.78,5.19-27.02,7.94-41.17,1.84-11.21,7.25-31.53,2.85-41.6-4.47-7.79-13.8.23-19.04,5.64-14.86,16.36-26.2,38.05-33.23,60.85-6.35,21.62-8.28,45.54-26.41,57.73-5.98,4.26-18.45,10.64-23.25,2.4l-.05-.1Z"/>
      <path class="cls-1" d="M517.12,452.74c-10.99-6.39-23.24-17.7-24.25-32.87-1.12-13.98,12.94-29.45,24.14-24.73,5.39,2.31,8.97,9.09,11.84,15.23,3.45,7.63,7.18,15.54,13.47,20.11,15.34,11.52,38.32,6.16,49.48-11.53,11.17-16.1,16.26-41.2,19.88-60.67,2.8-15.78,4.77-28.88,7.55-45.65,6.4-40.59,13.48-80.2,18.1-112.81.9-6.9-.94-16.99-7.88-14.12-3.66,1.63-6.85,5.07-10.05,7.79-7.7,7.41-12.34,6.65-8.71-5.8,2.54-8.01,7.31-15.14,12.33-21.19,11.77-14.36,37.37-32.22,49.51-10.27,2.98,5.61,2.99,15.05,3.34,21.4.35,12.72,6.82,4.96,11.4-.17,13.7-16.21,32.04-33.17,51.99-32.05,18.44,1.81,25.93,21.17,26.53,41.72,1.57,38.17-14.14,75.29-36.78,100.9-13.65,15.06-30.79,27.29-49.11,30.12-7.6,1.02-15.83,1.52-21.07,8.78-6.06,7.81-7.62,21.71-10.25,32.28-9.11,42.88-33.53,83.06-69.22,96.57-19.94,7.62-42.96,7.67-62.1-2.94l-.15-.08ZM702.83,281.23c13.89-15.18,20.44-39.06,22.64-61.42,1.14-11.35,1.41-30.79-7.18-35.86-5.9-3.14-12.81,1.36-17.82,5.73-11.66,10.67-20.18,25.49-27.01,41.09-5.7,14.12-18.27,45.9-6.95,57.57,10.16,9.9,27.39,2.57,36.2-6.98l.12-.13Z"/>
      <path class="cls-1" d="M785.2,308.34c-12.46-19.44-7.81-50.12-.63-71.48,19.68-58.99,72.81-104.08,125.93-91.17,16.38,4.88,13.29,18.78,9.69,34.21-4.36,21.26-8.53,43.74-12.65,65.36-1.56,9.3-4.27,19.84-2.38,29.02,2.22,8.81,8.35,7.46,14.04,1.61,3.58-3.54,7.9-9.7,11.16-12.36,3.12-2.76,5.17-1.56,5.3,2.04-.75,22.28-22.35,47.19-39.68,51.93-8.28,2.58-18.2,1.53-24.29-6.3-2.42-2.97-4.05-7.04-4.99-11.24-1.38-4.51-1.54-14.63-4.85-15.73-2.73-.55-6.52,3.59-9.18,6.04-2.41,2.37-4.82,4.87-7.32,7.17-16.28,14.58-43.24,33.82-60.06,11.02l-.1-.14ZM844.25,273.32c16.34-16.48,29.26-39.61,37.47-63.12,2.67-7.89,4.96-16.18,4.61-23.04-.69-16.59-14.39-18.61-24.98-13.35-7.75,3.61-14.51,10.31-20.02,17.84-10.98,15.25-18.27,34.87-21.88,54.76-5.01,26.4.07,50.83,24.65,27.03l.14-.13Z"/>
      <path class="cls-1" d="M957.17,294.78c-.57-4.97-.54-9.94-.13-14.88,5.26-37.79,14.75-85.35,21.34-125.31,9.74-54.97,21-125.1,70.97-145.03,6.56-2.76,13.28-4.52,20.64-5.97,7.34-1.35,15.18-3.02,22.67-3.54,5.71-.33,10.08.69,11.55,3.26,2.03,3.84-1.03,8.86-6.44,12.92-10.18,7.34-23.64,7.41-34.48,13.27-32.05,16.76-36.92,76.84-43.9,113.68-6.06,35.82-14.16,83.46-20.2,119.32-.69,4.67-1.62,9.28-.64,13.84,1.42,6.64,7.85,6.46,12.82,1.62,3.26-2.06,15.32-20.64,16.96-11.33.54,6.88-2.78,14.6-5.9,20.48-7.76,13.91-19.46,25.63-32.74,30.89-16.42,6.47-30.2-1.13-32.48-23.03l-.02-.17Z"/>
    </g>
  </g>
</svg>